<?xml version="1.0" encoding="UTF-8" standalone="no"?>
<!-- Created with Inkscape (http://www.inkscape.org/) -->

<svg
   xmlns:dc="http://purl.org/dc/elements/1.1/"
   xmlns:cc="http://creativecommons.org/ns#"
   xmlns:rdf="http://www.w3.org/1999/02/22-rdf-syntax-ns#"
   xmlns:svg="http://www.w3.org/2000/svg"
   xmlns="http://www.w3.org/2000/svg"
   xmlns:sodipodi="http://sodipodi.sourceforge.net/DTD/sodipodi-0.dtd"
   xmlns:inkscape="http://www.inkscape.org/namespaces/inkscape"
   width="53mm"
   height="53mm"
   viewBox="0 0 53 53.000001"
   version="1.1"
   id="svg1048"
   inkscape:version="0.92.4 (5da689c313, 2019-01-14)"
   sodipodi:docname="number7.svg">
  <defs
     id="defs1042" />
  <sodipodi:namedview
     id="base"
     pagecolor="#ffffff"
     bordercolor="#666666"
     borderopacity="1.0"
     inkscape:pageopacity="0.0"
     inkscape:pageshadow="2"
     inkscape:zoom="1.979899"
     inkscape:cx="-109.34381"
     inkscape:cy="11.157676"
     inkscape:document-units="mm"
     inkscape:current-layer="layer1"
     showgrid="false"
     inkscape:window-width="2560"
     inkscape:window-height="1377"
     inkscape:window-x="-8"
     inkscape:window-y="-8"
     inkscape:window-maximized="1"
     fit-margin-top="1"
     fit-margin-right="1"
     fit-margin-bottom="1"
     fit-margin-left="1" />
  <metadata
     id="metadata1045">
    <rdf:RDF>
      <cc:Work
         rdf:about="">
        <dc:format>image/svg+xml</dc:format>
        <dc:type
           rdf:resource="http://purl.org/dc/dcmitype/StillImage" />
        <dc:title></dc:title>
      </cc:Work>
    </rdf:RDF>
  </metadata>
  <g
     inkscape:label="Layer 1"
     inkscape:groupmode="layer"
     id="layer1"
     transform="translate(-2.0942403,-243.111)">
    <path
       sodipodi:nodetypes="cccccscssscccccc"
       inkscape:connector-curvature="0"
       id="path1871"
       d="m 17.006388,293.76456 c -2.28623,0.51175 -2.40088,0.42089 -4.13086,0.83028 0.74401,-10.89078 4.35517,-17.30298 9.06732,-22.4008 0.81355,-0.88013 1.65992,-1.72112 2.48029,-2.53419 -3.80528,0.18389 -7.07749,0.68895 -9.05571,1.38015 4.09882,-4.20638 8.06702,-4.58008 11.83895,-3.82992 3.3865,-2.94934 7.04057,-5.84377 10.40973,-9.53046 -9.03271,1.99804 -21.48203,-2.83299 -24.19965,-11.1422 -0.76115,-2.32726 2.12195,-3.64282 2.68727,-1.8048 3.11024,10.11236 21.04952,13.70566 27.730481,4.20948 1.313198,-1.86656 0.95948,3.84635 0.95948,3.84635 -3.812702,7.11733 -13.738831,15.38115 -13.738831,15.38115 0,0 8.622961,2.85695 12.609981,0.14888 -1.823181,2.25697 -0.626171,3.19857 1.71102,4.77273 -3.946382,-2.28301 -10.156541,-3.29125 -16.057821,-3.45273 -6.14048,5.40769 -11.43641,11.31427 -12.31165,24.12608"
       style="fill:#e5ff80;stroke:#445500;stroke-width:0.28018078px;stroke-linecap:butt;stroke-linejoin:miter;stroke-opacity:1" />
  </g>
</svg>
