<?xml version="1.0" encoding="UTF-8" standalone="no"?>
<!-- Created with Inkscape (http://www.inkscape.org/) -->

<svg
   xmlns:dc="http://purl.org/dc/elements/1.1/"
   xmlns:cc="http://creativecommons.org/ns#"
   xmlns:rdf="http://www.w3.org/1999/02/22-rdf-syntax-ns#"
   xmlns:svg="http://www.w3.org/2000/svg"
   xmlns="http://www.w3.org/2000/svg"
   xmlns:sodipodi="http://sodipodi.sourceforge.net/DTD/sodipodi-0.dtd"
   xmlns:inkscape="http://www.inkscape.org/namespaces/inkscape"
   width="53mm"
   height="53mm"
   viewBox="0 0 53 53.000001"
   version="1.1"
   id="svg1048"
   inkscape:version="0.92.4 (5da689c313, 2019-01-14)"
   sodipodi:docname="number3.svg">
  <defs
     id="defs1042" />
  <sodipodi:namedview
     id="base"
     pagecolor="#ffffff"
     bordercolor="#666666"
     borderopacity="1.0"
     inkscape:pageopacity="0.0"
     inkscape:pageshadow="2"
     inkscape:zoom="1.979899"
     inkscape:cx="-109.34381"
     inkscape:cy="11.157676"
     inkscape:document-units="mm"
     inkscape:current-layer="layer1"
     showgrid="false"
     inkscape:window-width="2560"
     inkscape:window-height="1377"
     inkscape:window-x="-8"
     inkscape:window-y="-8"
     inkscape:window-maximized="1"
     fit-margin-top="1"
     fit-margin-right="1"
     fit-margin-bottom="1"
     fit-margin-left="1" />
  <metadata
     id="metadata1045">
    <rdf:RDF>
      <cc:Work
         rdf:about="">
        <dc:format>image/svg+xml</dc:format>
        <dc:type
           rdf:resource="http://purl.org/dc/dcmitype/StillImage" />
        <dc:title></dc:title>
      </cc:Work>
    </rdf:RDF>
  </metadata>
  <g
     inkscape:label="Layer 1"
     inkscape:groupmode="layer"
     id="layer1"
     transform="translate(-2.0942403,-243.111)">
    <path
       inkscape:connector-curvature="0"
       id="path1038"
       d="m 29.185377,244.67984 c 3.85268,0.31057 6.98426,0.84351 9.7443,4.52849 l 0.65814,0.86181 c 4.02648,5.91908 1.896959,13.84918 -3.79403,17.14133 1.29733,0.63546 1.50354,0.72966 2.932089,1.66643 3.184141,2.09596 11.234359,12.86546 7.85993,18.26213 -3.56034,5.69398 -11.818019,8.02096 -19.076709,6.69165 -4.97377,-0.78378 -8.34097,-2.64057 -11.23562,-4.90884 -2.02916,-1.62996 -4.69807,-3.86973 -4.70556,-6.96991 -0.002,-1.07788 2.03942,1.77934 2.99494,1.51799 0.92782,3.21502 2.65756,5.50878 5.69476,6.87118 7.8967,3.54225 14.8453,1.07349 18.993089,-5.55997 1.46717,-2.34642 1.6553,-5.35457 0.9739,-8.17823 -0.6814,-2.82365 -2.269908,-5.41693 -4.243249,-7.07125 -0.96848,-0.81191 -1.03338,-0.95124 -2.19931,-1.66584 -2.03259,0.6382 -3.95377,1.29381 -5.93893,0.99642 -1.240251,-0.18582 -2.19488,-0.79897 -3.3651,-1.68253 0.93067,0.46857 7.40669,-1.3509 7.96324,-1.67233 5.653059,-3.26472 8.569831,-11.91064 3.74031,-17.14136 -0.5838,-0.63229 -1.9303,-1.47565 -2.60987,-1.7233 -3.64718,-1.32916 -7.65069,1.3635 -11.27454,0.36046 -1.01072,-0.27975 -1.59872,-1.35822 -2.64535,-1.70311 2.768159,-0.1816 6.289729,-0.89229 9.53357,-0.62122"
       style="fill:#ffeeaa;stroke:#d4aa00;stroke-width:0.31639734px;stroke-linecap:round;stroke-linejoin:miter;stroke-opacity:1"
       sodipodi:nodetypes="ccccccccscsssscaccssacc" />
  </g>
</svg>
